<svg aria-hidden="true" style="position: absolute; width: 0; height: 0; overflow: hidden;" version="1.1" xmlns="http://www.w3.org/2000/svg" xmlns:xlink="http://www.w3.org/1999/xlink">
<defs>
<symbol id="icon-articulos" viewBox="0 0 32 32">
<title>articulos</title>
<path d="M28.44 3.56v3.56h-7.107v-3.56h7.107zM10.667 3.56v10.667h-7.107v-10.667h7.107zM28.44 17.773v10.667h-7.107v-10.667h7.107zM10.667 24.893v3.56h-7.107v-3.56h7.107zM32 0h-14.227v10.667h14.227v-10.667zM14.227 0h-14.227v17.773h14.227v-17.773zM32 14.227h-14.227v17.773h14.227v-17.773zM14.227 21.333h-14.227v10.667h14.227v-10.667z"></path>
</symbol>
<symbol id="icon-clientes" viewBox="0 0 32 32">
<title>clientes</title>
<path d="M16 3.8c2.32 0 4.2 1.88 4.2 4.2s-1.88 4.2-4.2 4.2-4.2-1.88-4.2-4.2v0c0-2.32 1.88-4.2 4.2-4.2zM16 21.8c5.933 0 12.2 2.92 12.2 4.2v2.2h-24.4v-2.2c0-1.28 6.267-4.2 12.2-4.2zM16 0c-4.413 0-8 3.587-8 8s3.587 8 8 8 8-3.587 8-8-3.587-8-8-8zM16 18c-5.347 0-16 2.68-16 8v6h32v-6c0-5.32-10.667-8-16-8z"></path>
</symbol>
<symbol id="icon-competencia" viewBox="0 0 32 32">
<title>competencia</title>
<path d="M16 7.107v-7.107h-16v32h32v-24.893h-16zM6.4 28.44h-3.2v-3.56h3.2v3.56zM6.4 21.333h-3.2v-3.56h3.2v3.56zM6.4 14.227h-3.2v-3.56h3.2v3.56zM6.4 7.107h-3.2v-3.547h3.2v3.547zM12.8 28.44h-3.2v-3.56h3.2v3.56zM12.8 21.333h-3.2v-3.56h3.2v3.56zM12.8 14.227h-3.2v-3.56h3.2v3.56zM12.8 7.107h-3.2v-3.547h3.2v3.547zM28.8 28.44h-12.8v-3.56h3.2v-3.547h-3.2v-3.56h3.2v-3.56h-3.2v-3.547h12.8v17.773zM25.6 14.227h-3.2v3.56h3.2v-3.56zM25.6 21.333h-3.2v3.56h3.2v-3.56z"></path>
</symbol>
<symbol id="icon-diarias" viewBox="0 0 18 32">
<title>diarias</title>
<path d="M9.747 14.040c-4.040-1.053-5.333-2.133-5.333-3.827 0-1.933 1.8-3.293 4.8-3.293 3.16 0 4.333 1.507 4.44 3.733h3.933c-0.080-3.32-2.453-6.133-5.707-6.773v-3.88h-5.333v3.84c-3.453 0.747-6.227 2.987-6.227 6.413 0 4.107 3.4 6.147 8.36 7.347 4.44 1.067 5.333 2.627 5.333 4.28 0 1.227-0.867 3.187-4.8 3.187-3.667 0-5.107-1.64-5.293-3.733h-3.92c0.213 3.893 3.133 6.080 6.547 6.813v3.853h5.333v-3.827c3.467-0.653 6.227-2.667 6.227-6.307-0.013-5.053-4.333-6.773-8.36-7.827z"></path>
</symbol>
<symbol id="icon-mapa" viewBox="0 0 32 32">
<title>mapa</title>
<path d="M31.107 0l-0.28 0.053-9.493 3.68-10.667-3.733-10.027 3.373c-0.373 0.12-0.64 0.467-0.64 0.853v26.88c0 0.493 0.387 0.893 0.867 0.893 0 0 0.013 0 0.013 0l0.28-0.053 9.507-3.68 10.667 3.733 10.027-3.373c0.373-0.12 0.64-0.467 0.64-0.853v-26.88c0-0.493-0.387-0.893-0.867-0.893-0.013 0-0.013 0-0.027 0zM12.44 4.387l7.107 2.493v20.733l-7.107-2.493v-20.733zM3.56 6.147l5.333-1.8v20.8l-5.333 2.067v-21.067zM28.44 25.853l-5.333 1.8v-20.787l5.333-2.067v21.053z"></path>
</symbol>
<symbol id="icon-pedidos" viewBox="0 0 32 32">
<title>pedidos</title>
<path d="M23.28 17.6c1.16 0 2.24-0.627 2.8-1.653l5.72-10.387c0.427-0.773 0.133-1.747-0.64-2.173-0.227-0.12-0.493-0.187-0.76-0.187h-23.667l-1.493-3.2h-5.24v3.2h3.2l5.76 12.147-2.16 3.907c-0.853 1.547-0.293 3.493 1.24 4.347 0.48 0.267 1.013 0.4 1.56 0.4h19.187v-3.2h-19.187l1.76-3.2h11.92zM8.253 6.4h19.427l-4.413 8h-11.213l-3.8-8zM9.6 25.6c-1.773 0-3.2 1.427-3.2 3.2s1.44 3.2 3.2 3.2 3.2-1.427 3.2-3.2-1.427-3.2-3.2-3.2v0zM25.6 25.6c-1.773 0-3.2 1.427-3.2 3.2s1.427 3.2 3.2 3.2 3.2-1.427 3.2-3.2v0c0-1.773-1.427-3.2-3.2-3.2 0 0 0 0 0 0v0z"></path>
</symbol>
<symbol id="icon-proveedores" viewBox="0 0 46 32">
<title>proveedores</title>
<path d="M16 20c-5.347 0-16 2.68-16 8v4h32v-4c0-5.32-10.653-8-16-8zM5.347 27.427c3.253-1.84 6.92-2.827 10.653-2.853 3.733 0.040 7.4 1.013 10.653 2.853h-21.307zM16 16c4.413 0 8-3.587 8-8s-3.587-8-8-8-8 3.587-8 8c0 4.413 3.587 8 8 8zM16 4.573c1.893 0 3.427 1.533 3.427 3.427s-1.533 3.427-3.427 3.427-3.427-1.533-3.427-3.427v0c0-1.893 1.533-3.427 3.427-3.427 0 0 0 0 0 0zM32.093 20.133c2.72 1.707 4.4 4.653 4.48 7.867v4h9.147v-4c0-4.613-8-7.24-13.627-7.867zM29.72 16c4.413 0 8-3.587 8-8s-3.587-8-8-8c-1.187 0-2.36 0.28-3.427 0.8 3.053 4.32 3.053 10.080 0 14.4 1.067 0.52 2.227 0.8 3.427 0.8z"></path>
</symbol>
<symbol id="icon-remitos" viewBox="0 0 32 32">
<title>remitos</title>
<path d="M29.093 0h-26.187c-1.773 0.2-3.067 1.773-2.907 3.56v24.893c-0.16 1.773 1.133 3.36 2.907 3.56h26.187c1.773-0.2 3.067-1.773 2.907-3.56v-24.893c0.16-1.787-1.133-3.36-2.907-3.56zM29.093 28.44h-26.187v-24.88h26.187v24.88zM5.813 12.44h13.093v3.56h-13.093v-3.56zM5.813 7.107h13.093v3.56h-13.093v-3.56z"></path>
</symbol>
<symbol id="icon-reportes" viewBox="0 0 26 32">
<title>reportes</title>
<path d="M22.4 0h-19.2c-1.76 0-3.2 1.44-3.2 3.2v25.6c0 1.76 1.44 3.2 3.2 3.2h19.2c1.76 0 3.2-1.44 3.2-3.2v-25.6c0-1.76-1.44-3.2-3.2-3.2zM8 3.2h3.2v8l-1.6-1.2-1.6 1.2v-8zM22.4 28.8h-19.2v-25.6h1.6v14.4l4.8-3.6 4.8 3.6v-14.4h8v25.6z"></path>
</symbol>
</defs>
</svg>
