<!-- Generated by IcoMoon.io -->
<svg version="1.1" xmlns="http://www.w3.org/2000/svg" width="32" height="32" viewBox="0 0 32 32">
<title>competencia</title>
<path d="M16 7.107v-7.107h-16v32h32v-24.893h-16zM6.4 28.44h-3.2v-3.56h3.2v3.56zM6.4 21.333h-3.2v-3.56h3.2v3.56zM6.4 14.227h-3.2v-3.56h3.2v3.56zM6.4 7.107h-3.2v-3.547h3.2v3.547zM12.8 28.44h-3.2v-3.56h3.2v3.56zM12.8 21.333h-3.2v-3.56h3.2v3.56zM12.8 14.227h-3.2v-3.56h3.2v3.56zM12.8 7.107h-3.2v-3.547h3.2v3.547zM28.8 28.44h-12.8v-3.56h3.2v-3.547h-3.2v-3.56h3.2v-3.56h-3.2v-3.547h12.8v17.773zM25.6 14.227h-3.2v3.56h3.2v-3.56zM25.6 21.333h-3.2v3.56h3.2v-3.56z"></path>
</svg>
