<!-- Generated by IcoMoon.io -->
<svg version="1.1" xmlns="http://www.w3.org/2000/svg" width="18" height="32" viewBox="0 0 18 32">
<title>diarias</title>
<path d="M9.747 14.040c-4.040-1.053-5.333-2.133-5.333-3.827 0-1.933 1.8-3.293 4.8-3.293 3.16 0 4.333 1.507 4.44 3.733h3.933c-0.080-3.32-2.453-6.133-5.707-6.773v-3.88h-5.333v3.84c-3.453 0.747-6.227 2.987-6.227 6.413 0 4.107 3.4 6.147 8.36 7.347 4.44 1.067 5.333 2.627 5.333 4.28 0 1.227-0.867 3.187-4.8 3.187-3.667 0-5.107-1.64-5.293-3.733h-3.92c0.213 3.893 3.133 6.080 6.547 6.813v3.853h5.333v-3.827c3.467-0.653 6.227-2.667 6.227-6.307-0.013-5.053-4.333-6.773-8.36-7.827z"></path>
</svg>
