<!-- Generated by IcoMoon.io -->
<svg version="1.1" xmlns="http://www.w3.org/2000/svg" width="31" height="32" viewBox="0 0 31 32">
<title>filter</title>
<path d="M27.976 1.849h-25.24c-0.448 0-0.85 0.252-1.055 0.644-0.205 0.402-0.168 0.878 0.093 1.251l9.254 13.035c0.336 0.458 0.514 0.999 0.523 1.569v10.617c0 0.654 0.523 1.186 1.177 1.186 0 0 0.009 0 0.009 0 0.159 0 0.317-0.028 0.467-0.093l5.192-1.98c0.476-0.159 0.794-0.607 0.775-1.111v-8.619c0-0.56 0.187-1.111 0.523-1.569l0.009-0.009 9.244-13.026c0.261-0.364 0.299-0.85 0.093-1.251-0.215-0.402-0.616-0.644-1.064-0.644zM18.526 15.93c-0.514 0.7-0.794 1.55-0.794 2.418v8.451l-4.744 1.811v-10.262c0-0.868-0.28-1.718-0.794-2.418l-8.983-12.643h24.287l-8.973 12.643z"></path>
</svg>
