<!-- Generated by IcoMoon.io -->
<svg version="1.1" xmlns="http://www.w3.org/2000/svg" width="32" height="32" viewBox="0 0 32 32">
<title>mapa</title>
<path d="M31.107 0l-0.28 0.053-9.493 3.68-10.667-3.733-10.027 3.373c-0.373 0.12-0.64 0.467-0.64 0.853v26.88c0 0.493 0.387 0.893 0.867 0.893 0 0 0.013 0 0.013 0l0.28-0.053 9.507-3.68 10.667 3.733 10.027-3.373c0.373-0.12 0.64-0.467 0.64-0.853v-26.88c0-0.493-0.387-0.893-0.867-0.893-0.013 0-0.013 0-0.027 0zM12.44 4.387l7.107 2.493v20.733l-7.107-2.493v-20.733zM3.56 6.147l5.333-1.8v20.8l-5.333 2.067v-21.067zM28.44 25.853l-5.333 1.8v-20.787l5.333-2.067v21.053z"></path>
</svg>
