<!-- Generated by IcoMoon.io -->
<svg version="1.1" xmlns="http://www.w3.org/2000/svg" width="32" height="32" viewBox="0 0 32 32">
<title>pedidos</title>
<path d="M23.28 17.6c1.16 0 2.24-0.627 2.8-1.653l5.72-10.387c0.427-0.773 0.133-1.747-0.64-2.173-0.227-0.12-0.493-0.187-0.76-0.187h-23.667l-1.493-3.2h-5.24v3.2h3.2l5.76 12.147-2.16 3.907c-0.853 1.547-0.293 3.493 1.24 4.347 0.48 0.267 1.013 0.4 1.56 0.4h19.187v-3.2h-19.187l1.76-3.2h11.92zM8.253 6.4h19.427l-4.413 8h-11.213l-3.8-8zM9.6 25.6c-1.773 0-3.2 1.427-3.2 3.2s1.44 3.2 3.2 3.2 3.2-1.427 3.2-3.2-1.427-3.2-3.2-3.2v0zM25.6 25.6c-1.773 0-3.2 1.427-3.2 3.2s1.427 3.2 3.2 3.2 3.2-1.427 3.2-3.2v0c0-1.773-1.427-3.2-3.2-3.2 0 0 0 0 0 0v0z"></path>
</svg>
