<!-- Generated by IcoMoon.io -->
<svg version="1.1" xmlns="http://www.w3.org/2000/svg" width="46" height="32" viewBox="0 0 46 32">
<title>proveedores</title>
<path d="M16 20c-5.347 0-16 2.68-16 8v4h32v-4c0-5.32-10.653-8-16-8zM5.347 27.427c3.253-1.84 6.92-2.827 10.653-2.853 3.733 0.040 7.4 1.013 10.653 2.853h-21.307zM16 16c4.413 0 8-3.587 8-8s-3.587-8-8-8-8 3.587-8 8c0 4.413 3.587 8 8 8zM16 4.573c1.893 0 3.427 1.533 3.427 3.427s-1.533 3.427-3.427 3.427-3.427-1.533-3.427-3.427v0c0-1.893 1.533-3.427 3.427-3.427 0 0 0 0 0 0zM32.093 20.133c2.72 1.707 4.4 4.653 4.48 7.867v4h9.147v-4c0-4.613-8-7.24-13.627-7.867zM29.72 16c4.413 0 8-3.587 8-8s-3.587-8-8-8c-1.187 0-2.36 0.28-3.427 0.8 3.053 4.32 3.053 10.080 0 14.4 1.067 0.52 2.227 0.8 3.427 0.8z"></path>
</svg>
